<?xml version="1.0" standalone="no"?>
<!DOCTYPE svg PUBLIC "-//W3C//DTD SVG 20010904//EN"
 "http://www.w3.org/TR/2001/REC-SVG-20010904/DTD/svg10.dtd">
<svg version="1.0" xmlns="http://www.w3.org/2000/svg"
 width="321.000000pt" height="321.000000pt" viewBox="0 0 321.000000 321.000000"
 preserveAspectRatio="xMidYMid meet">
<metadata>
Created by potrace 1.16, written by Peter Selinger 2001-2019
</metadata>
<g transform="translate(0.000000,321.000000) scale(0.100000,-0.100000)"
fill="#000000" stroke="none">
<path d="M0 2810 c0 -360 5 -447 23 -379 4 16 12 20 29 17 24 -4 48 12 48 32
0 5 7 10 15 10 8 0 15 4 15 8 0 10 30 50 54 71 10 9 28 26 41 37 12 12 36 25
53 29 18 3 34 10 37 15 3 4 -5 6 -17 2 -18 -4 -14 3 20 36 23 22 50 42 59 44
10 2 22 18 27 38 12 40 28 60 50 60 9 0 16 5 16 10 0 13 37 50 50 50 6 0 10 6
10 14 0 7 11 22 25 32 29 22 32 34 9 34 -12 0 -5 11 20 35 21 19 43 35 51 35
15 0 25 22 25 56 0 16 6 24 18 24 18 0 62 49 62 69 0 5 6 12 13 14 6 3 -160 6
-370 6 l-383 1 0 -400z"/>
<path d="M1195 3039 c-16 -5 -54 -17 -82 -26 -37 -11 -65 -29 -93 -60 -23 -23
-47 -43 -55 -43 -7 0 -23 -21 -36 -47 -12 -27 -30 -57 -40 -68 -9 -11 -24 -40
-32 -64 -13 -39 -13 -47 0 -59 10 -10 11 -18 3 -27 -9 -10 -4 -15 21 -20 26
-6 29 -9 17 -16 -14 -8 -16 -24 -12 -97 9 -180 43 -337 84 -389 20 -25 28 -93
12 -93 -11 0 -28 -78 -24 -107 6 -42 32 -27 32 19 0 64 9 40 16 -43 8 -90 8
-90 0 -110 -5 -11 -1 -18 12 -21 13 -4 22 -18 26 -41 9 -49 63 -148 92 -170
13 -10 24 -25 24 -32 0 -7 14 -25 30 -38 17 -14 30 -30 30 -36 0 -6 9 -16 19
-23 18 -11 18 -13 3 -25 -15 -11 -15 -12 -2 -13 9 0 33 -16 53 -35 20 -19 46
-35 58 -35 11 0 17 -4 14 -10 -9 -14 27 1 45 19 13 13 15 13 18 -2 3 -12 12
-17 32 -15 16 1 37 -4 47 -12 30 -25 57 -37 71 -33 6 3 10 9 7 14 -3 4 6 11
21 15 20 5 23 9 12 16 -9 7 -7 8 10 5 12 -3 25 1 30 8 4 7 23 24 43 37 37 25
89 76 89 87 0 3 20 27 44 52 24 26 46 59 50 75 4 15 14 33 22 38 13 10 23 48
43 156 10 52 3 119 -10 98 -5 -7 -6 -23 -3 -34 6 -24 -11 -64 -26 -64 -6 0
-10 6 -10 14 0 9 -7 12 -18 9 -12 -3 -18 2 -19 14 -2 40 -15 76 -33 95 -11 12
-17 25 -14 29 8 14 -56 69 -108 92 -69 31 -83 30 -54 -2 15 -17 19 -33 17 -65
-1 -16 -7 -18 -37 -13 -19 3 -47 2 -61 -4 -31 -12 -64 -3 -57 15 6 15 -40 31
-58 20 -6 -4 -8 -3 -5 3 4 6 0 13 -8 17 -8 3 -15 10 -15 16 0 15 26 12 40 -5
15 -18 40 -20 40 -3 0 6 -8 20 -17 31 -14 15 -15 21 -5 24 10 4 10 8 1 19 -6
8 -8 14 -5 14 4 0 1 10 -5 23 -7 12 -14 38 -16 57 -2 19 -5 40 -8 47 -2 7 2
25 10 40 17 32 20 67 5 58 -5 -3 -10 1 -10 9 0 38 -64 45 -197 21 -85 -15
-163 -53 -163 -79 0 -7 -7 -19 -15 -26 -22 -18 -18 -30 10 -30 33 0 32 -16 -2
-34 -26 -14 -26 -15 -6 -16 12 0 24 -4 28 -10 3 -5 15 -6 28 -1 12 4 39 9 61
9 33 1 36 -1 25 -14 -9 -11 -26 -14 -57 -12 -32 2 -46 -1 -50 -11 -3 -10 0
-12 11 -8 23 9 72 -7 73 -24 1 -21 16 -53 28 -61 16 -11 13 -67 -4 -75 -18 -8
-26 -10 -41 -12 -7 -1 -9 -12 -6 -29 4 -21 -1 -36 -18 -58 -21 -25 -26 -28
-44 -16 -11 6 -27 12 -36 12 -8 0 -17 12 -21 28 -4 15 -13 38 -21 51 -24 37
-31 355 -10 413 8 24 20 77 26 119 13 92 26 129 45 129 8 0 19 6 23 14 11 20
106 66 136 66 14 0 28 4 32 9 3 5 33 10 66 10 55 0 61 -2 56 -19 -4 -18 -1
-19 39 -13 29 4 44 2 44 -5 0 -14 70 -34 126 -37 48 -3 85 -25 105 -63 8 -15
27 -42 44 -60 25 -28 34 -32 60 -28 58 11 65 -3 75 -164 5 -80 9 -147 10 -150
0 -2 4 0 10 6 10 10 16 41 25 139 3 33 9 88 14 122 6 39 6 76 0 97 -5 19 -9
52 -9 73 1 67 -2 76 -49 157 -42 71 -112 146 -138 146 -6 0 -28 13 -51 29
-111 81 -214 122 -304 121 -29 -1 -84 1 -123 4 -38 3 -83 1 -100 -5z m505
-1323 c0 -7 10 -16 21 -19 18 -5 21 -11 15 -40 -11 -58 -51 -127 -73 -127 -15
0 -63 24 -63 32 0 4 15 17 33 29 17 12 34 24 35 25 2 1 1 12 -3 24 -5 17 -12
20 -31 16 -24 -6 -33 7 -14 19 20 12 9 23 -32 29 -61 10 -30 26 50 26 46 0 62
-4 62 -14z"/>
<path d="M1510 2334 c0 -26 16 -70 48 -134 43 -86 51 -96 82 -103 23 -6 53 -4
88 5 56 14 68 29 30 39 -22 5 -23 5 -3 16 11 6 32 9 47 6 15 -3 35 -3 44 1 13
5 12 10 -8 35 -13 17 -31 30 -41 30 -15 1 -15 4 -5 21 14 23 38 26 56 8 7 -7
12 -8 12 -2 0 5 -10 15 -21 23 -17 10 -19 15 -8 21 11 8 11 10 -1 13 -149 46
-160 49 -202 42 -24 -4 -51 -12 -61 -17 -14 -7 -23 -4 -38 13 l-19 22 0 -39z"/>
<path d="M0 706 l0 -706 685 0 685 0 -5 23 c-14 61 -107 633 -115 707 -11 111
-42 273 -83 439 -25 99 -32 143 -27 172 9 48 -4 50 -27 4 -24 -45 -111 -119
-187 -157 -34 -17 -82 -45 -107 -63 -39 -28 -192 -85 -228 -85 -7 0 -21 21
-32 47 -35 82 -64 110 -156 154 -139 66 -350 158 -378 165 l-25 6 0 -706z"/>
<path d="M1851 1290 c-7 -23 -25 -63 -42 -91 -16 -27 -29 -54 -29 -60 0 -5 -6
-12 -13 -15 -7 -2 -22 -34 -32 -69 -11 -36 -26 -65 -32 -65 -7 0 -13 -4 -13
-9 0 -5 -3 -16 -6 -25 -4 -10 -1 -16 9 -16 20 0 24 -6 31 -54 4 -23 2 -44 -5
-52 -6 -8 -7 -14 -3 -14 5 0 24 24 42 53 18 28 42 64 53 78 21 26 40 113 53
239 4 36 9 82 12 103 8 49 -10 47 -25 -3z"/>
<path d="M1980 1188 c45 -147 46 -150 37 -208 -6 -35 -1 -69 17 -140 44 -170
73 -326 110 -598 6 -38 -7 -34 -34 10 l-18 31 -31 -66 c-17 -37 -31 -71 -31
-77 0 -7 21 -8 65 -4 l65 7 0 -56 c0 -96 -43 -87 436 -87 l424 0 0 28 c0 38
-45 334 -70 467 -23 118 -85 290 -132 367 -16 26 -40 75 -53 109 -47 120 -67
134 -212 150 -114 13 -233 41 -318 75 -33 14 -87 32 -119 40 -33 9 -82 27
-110 42 -28 15 -54 28 -57 30 -4 1 10 -52 31 -120z"/>
</g>
</svg>
